<mxfile host="Electron" modified="2023-12-29T04:12:15.760Z" agent="Mozilla/5.0 (Windows NT 10.0; Win64; x64) AppleWebKit/537.36 (KHTML, like Gecko) draw.io/22.1.11 Chrome/114.0.5735.289 Electron/25.9.8 Safari/537.36" etag="_qK8m4Teqe_eUQx3ijbm" version="22.1.11" type="device">
  <diagram id="C5RBs43oDa-KdzZeNtuy" name="Page-1">
    <mxGraphModel dx="794" dy="519" grid="1" gridSize="10" guides="1" tooltips="1" connect="1" arrows="1" fold="1" page="1" pageScale="1" pageWidth="827" pageHeight="1169" math="0" shadow="0">
      <root>
        <mxCell id="WIyWlLk6GJQsqaUBKTNV-0" />
        <mxCell id="WIyWlLk6GJQsqaUBKTNV-1" parent="WIyWlLk6GJQsqaUBKTNV-0" />
        <mxCell id="LIY2EcidwAixZazdOxaE-2" style="edgeStyle=orthogonalEdgeStyle;rounded=0;orthogonalLoop=1;jettySize=auto;html=1;exitX=0.5;exitY=1;exitDx=0;exitDy=0;entryX=0.5;entryY=0;entryDx=0;entryDy=0;" edge="1" parent="WIyWlLk6GJQsqaUBKTNV-1" source="LIY2EcidwAixZazdOxaE-0" target="LIY2EcidwAixZazdOxaE-1">
          <mxGeometry relative="1" as="geometry" />
        </mxCell>
        <mxCell id="LIY2EcidwAixZazdOxaE-0" value="开始" style="rounded=1;whiteSpace=wrap;html=1;" vertex="1" parent="WIyWlLk6GJQsqaUBKTNV-1">
          <mxGeometry x="270" y="140" width="80" height="30" as="geometry" />
        </mxCell>
        <mxCell id="LIY2EcidwAixZazdOxaE-6" style="edgeStyle=orthogonalEdgeStyle;rounded=0;orthogonalLoop=1;jettySize=auto;html=1;exitX=0.5;exitY=1;exitDx=0;exitDy=0;entryX=0.5;entryY=0;entryDx=0;entryDy=0;" edge="1" parent="WIyWlLk6GJQsqaUBKTNV-1" source="LIY2EcidwAixZazdOxaE-1" target="LIY2EcidwAixZazdOxaE-3">
          <mxGeometry relative="1" as="geometry" />
        </mxCell>
        <mxCell id="LIY2EcidwAixZazdOxaE-1" value="初始化" style="rounded=0;whiteSpace=wrap;html=1;" vertex="1" parent="WIyWlLk6GJQsqaUBKTNV-1">
          <mxGeometry x="265" y="200" width="90" height="30" as="geometry" />
        </mxCell>
        <mxCell id="LIY2EcidwAixZazdOxaE-8" style="edgeStyle=orthogonalEdgeStyle;rounded=0;orthogonalLoop=1;jettySize=auto;html=1;exitX=0.5;exitY=1;exitDx=0;exitDy=0;entryX=0.5;entryY=0;entryDx=0;entryDy=0;" edge="1" parent="WIyWlLk6GJQsqaUBKTNV-1" source="LIY2EcidwAixZazdOxaE-3" target="LIY2EcidwAixZazdOxaE-7">
          <mxGeometry relative="1" as="geometry" />
        </mxCell>
        <mxCell id="LIY2EcidwAixZazdOxaE-3" value="输入price和bill" style="shape=parallelogram;perimeter=parallelogramPerimeter;whiteSpace=wrap;html=1;fixedSize=1;" vertex="1" parent="WIyWlLk6GJQsqaUBKTNV-1">
          <mxGeometry x="257.5" y="260" width="105" height="40" as="geometry" />
        </mxCell>
        <mxCell id="LIY2EcidwAixZazdOxaE-10" value="是" style="edgeStyle=orthogonalEdgeStyle;rounded=0;orthogonalLoop=1;jettySize=auto;html=1;exitX=0;exitY=0.5;exitDx=0;exitDy=0;entryX=0.5;entryY=0;entryDx=0;entryDy=0;" edge="1" parent="WIyWlLk6GJQsqaUBKTNV-1" source="LIY2EcidwAixZazdOxaE-7" target="LIY2EcidwAixZazdOxaE-9">
          <mxGeometry relative="1" as="geometry" />
        </mxCell>
        <mxCell id="LIY2EcidwAixZazdOxaE-12" style="edgeStyle=orthogonalEdgeStyle;rounded=0;orthogonalLoop=1;jettySize=auto;html=1;exitX=1;exitY=0.5;exitDx=0;exitDy=0;entryX=0.5;entryY=0;entryDx=0;entryDy=0;" edge="1" parent="WIyWlLk6GJQsqaUBKTNV-1" source="LIY2EcidwAixZazdOxaE-7" target="LIY2EcidwAixZazdOxaE-11">
          <mxGeometry relative="1" as="geometry" />
        </mxCell>
        <mxCell id="LIY2EcidwAixZazdOxaE-14" value="否" style="edgeLabel;html=1;align=center;verticalAlign=middle;resizable=0;points=[];" vertex="1" connectable="0" parent="LIY2EcidwAixZazdOxaE-12">
          <mxGeometry x="0.0431" y="-2" relative="1" as="geometry">
            <mxPoint as="offset" />
          </mxGeometry>
        </mxCell>
        <mxCell id="LIY2EcidwAixZazdOxaE-7" value="bill&amp;gt;=price？" style="rhombus;whiteSpace=wrap;html=1;" vertex="1" parent="WIyWlLk6GJQsqaUBKTNV-1">
          <mxGeometry x="260" y="330" width="100" height="50" as="geometry" />
        </mxCell>
        <mxCell id="LIY2EcidwAixZazdOxaE-17" style="edgeStyle=orthogonalEdgeStyle;rounded=0;orthogonalLoop=1;jettySize=auto;html=1;exitX=0.5;exitY=1;exitDx=0;exitDy=0;entryX=0.5;entryY=0;entryDx=0;entryDy=0;" edge="1" parent="WIyWlLk6GJQsqaUBKTNV-1" source="LIY2EcidwAixZazdOxaE-9" target="LIY2EcidwAixZazdOxaE-13">
          <mxGeometry relative="1" as="geometry" />
        </mxCell>
        <mxCell id="LIY2EcidwAixZazdOxaE-9" value="输出bill&amp;nbsp; - price" style="shape=parallelogram;perimeter=parallelogramPerimeter;whiteSpace=wrap;html=1;fixedSize=1;" vertex="1" parent="WIyWlLk6GJQsqaUBKTNV-1">
          <mxGeometry x="150" y="400" width="120" height="40" as="geometry" />
        </mxCell>
        <mxCell id="LIY2EcidwAixZazdOxaE-18" style="edgeStyle=orthogonalEdgeStyle;rounded=0;orthogonalLoop=1;jettySize=auto;html=1;exitX=0.5;exitY=1;exitDx=0;exitDy=0;entryX=0.5;entryY=0;entryDx=0;entryDy=0;" edge="1" parent="WIyWlLk6GJQsqaUBKTNV-1" source="LIY2EcidwAixZazdOxaE-11" target="LIY2EcidwAixZazdOxaE-13">
          <mxGeometry relative="1" as="geometry" />
        </mxCell>
        <mxCell id="LIY2EcidwAixZazdOxaE-11" value="输出“钱不够”" style="shape=parallelogram;perimeter=parallelogramPerimeter;whiteSpace=wrap;html=1;fixedSize=1;" vertex="1" parent="WIyWlLk6GJQsqaUBKTNV-1">
          <mxGeometry x="340" y="400" width="120" height="40" as="geometry" />
        </mxCell>
        <mxCell id="LIY2EcidwAixZazdOxaE-13" value="结束" style="rounded=1;whiteSpace=wrap;html=1;" vertex="1" parent="WIyWlLk6GJQsqaUBKTNV-1">
          <mxGeometry x="262.5" y="480" width="87.5" height="30" as="geometry" />
        </mxCell>
      </root>
    </mxGraphModel>
  </diagram>
</mxfile>
